<?xml version="1.0" encoding="UTF-8"?>
<svg version="1.1" xmlns="http://www.w3.org/2000/svg" width="175" height="167">
<path d="M0 0 C7.54289631 2.8895082 13.83501532 2.04353194 21.28198242 -0.95288086 C30.00609457 -4.42211844 38.95379936 -5.61552911 47.90698242 -2.20288086 C56.69804373 1.81826706 61.14384321 8.02803358 64.68041992 16.94165039 C69.20538734 33.44325175 61.79892786 50.02048147 54.98510742 64.75415039 C52.9823961 69.29255266 52.38344405 73.04374986 52.10229492 77.99243164 C52.02881836 79.15258789 51.9553418 80.31274414 51.87963867 81.50805664 C51.73264841 83.92694908 51.59189586 86.34622964 51.45776367 88.76586914 C50.73302893 99.89484672 48.95121485 110.68334444 40.72338867 118.84008789 C36.31066578 122.70236718 33.67436444 124.42398431 27.55932617 124.32446289 C23.25366637 123.73544199 21.15093679 120.81437743 18.55932617 117.60180664 C15.62740672 113.12662768 14.89100835 107.96581313 13.84448242 102.79711914 C13.42589432 100.81232451 13.00541609 98.82792727 12.58276367 96.84399414 C12.40398682 95.97097656 12.22520996 95.09795898 12.04101562 94.19848633 C11.61095359 92.01401644 11.61095359 92.01401644 10.53198242 90.04711914 C9.87198242 90.04711914 9.21198242 90.04711914 8.53198242 90.04711914 C6.6790087 95.75059855 5.2326399 101.40621616 4.09448242 107.29711914 C2.67255696 114.08994439 1.03013545 117.41017983 -3.71801758 122.42211914 C-7.36852228 124.57923555 -10.38924018 124.77240843 -14.46801758 124.04711914 C-21.70761886 121.37989761 -25.1617485 115.83970165 -28.46801758 109.04711914 C-32.0250837 100.08538962 -32.16761502 91.00643066 -32.55200195 81.47875977 C-33.07819591 71.72556882 -35.28912918 63.91184159 -39.96801758 55.35961914 C-45.80008926 44.00242692 -48.29113153 30.37456379 -45.78051758 17.79711914 C-42.49653697 8.41431741 -36.73249944 2.24709831 -28.28051758 -2.89038086 C-18.10228023 -5.72693881 -9.56200782 -3.83848569 0 0 Z M-33.46801758 13.04711914 C-34.83391065 15.63932497 -35.72383748 18.21923476 -36.46801758 21.04711914 C-36.6562207 21.62204102 -36.84442383 22.19696289 -37.03833008 22.78930664 C-39.52689449 35.86558147 -32.85146502 48.99686004 -27.01879883 60.35180664 C-23.11871276 68.81919135 -23.1290373 78.13567932 -22.90161133 87.27954102 C-22.57597966 96.87151744 -21.48660072 105.86664622 -14.53051758 113.04711914 C-11.8202327 114.36119666 -10.33278174 113.7267337 -7.46801758 113.04711914 C-5.99686559 108.41076135 -4.61649206 103.77138053 -3.51879883 99.03149414 C-3.35476562 98.33282227 -3.19073242 97.63415039 -3.02172852 96.91430664 C-2.70084357 95.53124787 -2.38984545 94.14584773 -2.09008789 92.75805664 C-1.01218585 88.14563862 0.63006929 84.78375246 3.53198242 81.04711914 C6.28266438 79.42492209 7.85479589 79.01325981 11.03198242 79.17211914 C14.23617492 80.29358652 16.06500988 81.70466256 18.53198242 84.04711914 C19.78979492 87.07836914 19.78979492 87.07836914 20.65698242 90.54711914 C20.97666992 91.78204102 21.29635742 93.01696289 21.62573242 94.28930664 C21.92479492 95.52938477 22.22385742 96.76946289 22.53198242 98.04711914 C23.0728469 100.25564908 23.61444679 102.46399913 24.15698242 104.67211914 C24.48569336 106.08364258 24.48569336 106.08364258 24.82104492 107.52368164 C25.49051652 109.89993796 26.34658128 111.88908116 27.53198242 114.04711914 C29.81892465 114.55090943 29.81892465 114.55090943 32.53198242 114.04711914 C39.55162984 107.36174065 41.47906035 98.61221615 41.85620117 89.17993164 C42.51292782 75.93547042 43.41861048 64.91336934 49.53198242 53.04711914 C54.71748651 42.11093342 58.04631174 32.67879625 55.90698242 20.48461914 C53.43439697 14.30315551 50.27113149 9.5527629 44.21948242 6.48461914 C36.52627396 3.5673958 29.80274606 6.00661798 22.53198242 9.04711914 C22.53198242 9.70711914 22.53198242 10.36711914 22.53198242 11.04711914 C23.17006836 11.22887695 23.8081543 11.41063477 24.46557617 11.59790039 C25.29186523 11.84926758 26.1181543 12.10063477 26.96948242 12.35961914 C27.79319336 12.60325195 28.6169043 12.84688477 29.46557617 13.09790039 C30.48844727 13.56776367 30.48844727 13.56776367 31.53198242 14.04711914 C32.02698242 15.53211914 32.02698242 15.53211914 32.53198242 17.04711914 C19.06251044 17.85528746 6.82222335 12.86320927 -5.46801758 8.04711914 C-16.16484968 4.06895844 -25.52278149 3.66103713 -33.46801758 13.04711914 Z " fill="#22AFE0" transform="translate(79.468017578125,22.952880859375)"/>
<path d="M0 0 C0 0.66 0 1.32 0 2 C0.61875 2.28875 1.2375 2.5775 1.875 2.875 C4 4 4 4 6 6 C5.67 6.66 5.34 7.32 5 8 C5.66 8 6.32 8 7 8 C7.495 11.465 7.495 11.465 8 15 C8.66 15 9.32 15 10 15 C10.05397335 17.4377963 10.09365616 19.87439685 10.125 22.3125 C10.14175781 23.00279297 10.15851563 23.69308594 10.17578125 24.40429688 C10.21217794 28.17135396 10.14378864 29.78431704 8 33 C7.31097088 36.28263873 7 39.64502122 7 43 C7.66 43 8.32 43 9 43 C9.66 41.68 10.32 40.36 11 39 C12.19147327 42.41858943 11.84174612 44.13227065 10.3828125 47.40625 C10.02316406 48.23253906 9.66351563 49.05882812 9.29296875 49.91015625 C8.90753906 50.76480469 8.52210938 51.61945313 8.125 52.5 C7.37512238 54.19682206 6.62763632 55.8947035 5.8828125 57.59375 C5.54652832 58.34333984 5.21024414 59.09292969 4.86376953 59.86523438 C3.22931904 63.90470162 2.81717311 67.60016445 2.5703125 71.9453125 C2.49683594 73.10546875 2.42335938 74.265625 2.34765625 75.4609375 C2.20066598 77.87982994 2.05991344 80.2991105 1.92578125 82.71875 C1.20104651 93.84772758 -0.58076757 104.6362253 -8.80859375 112.79296875 C-13.22131664 116.65524804 -15.85761799 118.37686517 -21.97265625 118.27734375 C-26.27831605 117.68832285 -28.38104563 114.76725829 -30.97265625 111.5546875 C-33.9045757 107.07950854 -34.64097407 101.91869399 -35.6875 96.75 C-36.1060881 94.76520537 -36.52656633 92.78080813 -36.94921875 90.796875 C-37.12799561 89.92385742 -37.30677246 89.05083984 -37.4909668 88.15136719 C-37.92102883 85.9668973 -37.92102883 85.9668973 -39 84 C-39.66 84 -40.32 84 -41 84 C-42.85297373 89.70347941 -44.29934252 95.35909702 -45.4375 101.25 C-46.85942546 108.04282525 -48.50184697 111.36306069 -53.25 116.375 C-56.9005047 118.53211641 -59.9212226 118.72528929 -64 118 C-71.23960129 115.33277847 -74.69373092 109.79258251 -78 103 C-81.13329342 95.08469962 -81.67217743 87.18493019 -82.125 78.75 C-82.27097739 76.28631134 -82.41933071 73.82276205 -82.5703125 71.359375 C-82.65949951 69.74240723 -82.65949951 69.74240723 -82.75048828 68.09277344 C-82.99862224 65.01707771 -83.4483016 62.03462586 -84 59 C-82 60 -82 60 -80.9140625 62.66015625 C-79.32065736 68.76093345 -79.52676657 75.17396716 -79.375 81.4375 C-79.33632812 82.74138672 -79.29765625 84.04527344 -79.2578125 85.38867188 C-79.16393299 88.59230999 -79.07824846 91.79594832 -79 95 C-78.34 95 -77.68 95 -77 95 C-76.54625 96.134375 -76.0925 97.26875 -75.625 98.4375 C-74.42904194 102.04721692 -74.42904194 102.04721692 -72 103 C-72.3304834 102.32042236 -72.6609668 101.64084473 -73.00146484 100.94067383 C-74.20268267 97.40310201 -74.1352456 94.67827169 -73.9765625 90.94921875 C-73.95153656 90.29041214 -73.92651062 89.63160553 -73.90072632 88.95283508 C-73.8190354 86.86382617 -73.72225509 84.77583634 -73.625 82.6875 C-73.56670805 81.2650146 -73.50940595 79.84248826 -73.453125 78.41992188 C-73.31353514 74.94606723 -73.16041251 71.47296255 -73 68 C-72.67 68 -72.34 68 -72 68 C-71.98018066 68.589021 -71.96036133 69.17804199 -71.93994141 69.78491211 C-71.84356723 72.50282351 -71.73435288 75.22008103 -71.625 77.9375 C-71.5940625 78.86369141 -71.563125 79.78988281 -71.53125 80.74414062 C-71.16629238 89.41188404 -70.59945655 99.40054345 -64.125 105.875 C-61.57364031 107.22571984 -59.84667501 107.0845547 -57 107 C-56.90203125 106.46375 -56.8040625 105.9275 -56.703125 105.375 C-55.64032198 99.80444624 -54.42589598 94.2692612 -53.125 88.75 C-52.97579102 88.07710938 -52.82658203 87.40421875 -52.67285156 86.7109375 C-51.25657042 80.84886584 -49.16309501 76.42672224 -44.0625 73.0625 C-40.61265943 71.86561654 -39.36805882 71.65277647 -36 73 C-31.97720796 75.21664051 -30.49625776 76.71106206 -28.8359375 81.0234375 C-27.78334513 84.66331799 -26.86693364 88.31166178 -26 92 C-25.43845504 94.20857638 -24.87603203 96.4169298 -24.3125 98.625 C-23.8732769 100.41624503 -23.43555139 102.20785863 -23 104 C-22.66771623 105.33359528 -22.33480561 106.6670356 -22 108 C-18.92522902 107.42794958 -16.6937562 106.76896013 -14.55859375 104.40234375 C-9.40317681 96.66152369 -8.84911093 88.47563564 -8.41870117 79.36914062 C-7.83717092 67.32447922 -6.53551421 57.74460989 -1 47 C4.17641002 36.08299358 7.62139512 26.54917425 5.3125 14.375 C3.07441397 8.61992164 0.56879887 4.47343206 -5 1.5 C-10.90459231 -0.85784058 -16.84661208 0.12502057 -23 1 C-15.68173284 -3.87884477 -8.01344043 -2.07755863 0 0 Z " fill="#54BBD8" transform="translate(129,29)"/>
<path d="M0 0 C1.125 3.75 1.125 3.75 0 6 C1.32 5.67 2.64 5.34 4 5 C5.09489337 8.28468012 4.84192455 8.83413302 4 12 C3.68331838 18.08214987 3.93461989 24.00723687 5 30 C5.66 30 6.32 30 7 30 C7.30292969 30.73863281 7.60585938 31.47726563 7.91796875 32.23828125 C10.48701082 38.45931544 13.15128944 44.61717756 15.984375 50.72265625 C18.0468561 55.34737348 18.09982579 59.30919302 18.02734375 64.28125 C18.01470042 65.94400836 18.00233924 67.60676888 17.99023438 69.26953125 C17.96538412 71.88987975 17.93737137 74.51011606 17.90405273 77.13037109 C17.87388914 79.65983812 17.85609012 82.18916074 17.83984375 84.71875 C17.82638412 85.50318481 17.8129245 86.28761963 17.79905701 87.0958252 C17.78126396 90.94463781 17.81219186 92.71828779 20 96 C19.67 96.99 19.34 97.98 19 99 C15.7457985 96.16569547 14.4793247 94.31392226 14 90 C13.34 90 12.68 90 12 90 C10.87686559 83.2888116 10.70611523 76.62115856 10.5703125 69.82617188 C10.2861063 61.64932278 8.20477126 55.83393114 4.09375 48.77661133 C-3.37371134 35.91185844 -7.57687616 21.0758925 -4 6.25 C-3.67 5.1775 -3.34 4.105 -3 3 C-2.01 3 -1.02 3 0 3 C0 2.01 0 1.02 0 0 Z " fill="#4FB7D7" transform="translate(38,34)"/>
<path d="M0 0 C8.18320037 8.63782261 10.64594358 17.88569101 10.51953125 29.515625 C10.15517881 34.73272955 8.96950364 39.45189732 7.25 44.375 C6.59 44.375 5.93 44.375 5.25 44.375 C3.6053326 46.83826712 3.6053326 46.83826712 2.25 49.375 C0.765 48.88 0.765 48.88 -0.75 48.375 C-0.27525225 46.22818469 0.20491749 44.08256772 0.6875 41.9375 C0.95433594 40.74253906 1.22117187 39.54757813 1.49609375 38.31640625 C2.25 35.375 2.25 35.375 3.25 34.375 C3.48653523 31.84903741 3.67173692 29.34392793 3.8125 26.8125 C3.87727539 25.74612305 3.87727539 25.74612305 3.94335938 24.65820312 C4.04971777 22.89738088 4.15038846 21.1362168 4.25 19.375 C3.59 19.375 2.93 19.375 2.25 19.375 C1.755 15.91 1.755 15.91 1.25 12.375 C0.59 12.375 -0.07 12.375 -0.75 12.375 C-1.018125 11.75625 -1.28625 11.1375 -1.5625 10.5 C-2.70556848 8.0754767 -2.70556848 8.0754767 -5.75 6.375 C-5.75 5.715 -5.75 5.055 -5.75 4.375 C-15.35747179 3.32774004 -23.27371187 2.70298747 -32.4296875 6.46484375 C-34.75 7.375 -34.75 7.375 -37.75 7.375 C-37.75 6.385 -37.75 5.395 -37.75 4.375 C-38.89275391 4.40980469 -38.89275391 4.40980469 -40.05859375 4.4453125 C-49.19510692 4.60500187 -56.68174128 3.92632543 -64.75 -0.625 C-61.02502211 -1.8666593 -59.59171758 -0.82266974 -56.08984375 0.60546875 C-52.07602973 1.9255378 -47.94722503 2.12557474 -43.75 2.375 C-43.75 1.715 -43.75 1.055 -43.75 0.375 C-41.35539412 -0.44127446 -38.95943474 -1.25311645 -36.5625 -2.0625 C-35.55219727 -2.40764648 -35.55219727 -2.40764648 -34.52148438 -2.75976562 C-21.91083705 -7.00432497 -11.59492616 -6.85154728 0 0 Z " fill="#29ACD6" transform="translate(134.75,24.625)"/>
<path d="M0 0 C0 0.66 0 1.32 0 2 C0.61875 2.28875 1.2375 2.5775 1.875 2.875 C4 4 4 4 6 6 C5.67 6.66 5.34 7.32 5 8 C5.66 8 6.32 8 7 8 C7.33 10.31 7.66 12.62 8 15 C8.66 15 9.32 15 10 15 C10.05397335 17.4377963 10.09365616 19.87439685 10.125 22.3125 C10.14175781 23.00279297 10.15851563 23.69308594 10.17578125 24.40429688 C10.21217794 28.17135396 10.14378864 29.78431704 8 33 C7.31097088 36.28263873 7 39.64502122 7 43 C7.66 43 8.32 43 9 43 C9.66 41.68 10.32 40.36 11 39 C12.19147327 42.41858943 11.84174612 44.13227065 10.3828125 47.40625 C10.02316406 48.23253906 9.66351563 49.05882812 9.29296875 49.91015625 C8.90753906 50.76480469 8.52210938 51.61945313 8.125 52.5 C7.37512238 54.19682206 6.62763632 55.8947035 5.8828125 57.59375 C5.54652832 58.34333984 5.21024414 59.09292969 4.86376953 59.86523438 C3.22931904 63.90470162 2.81717311 67.60016445 2.5703125 71.9453125 C2.49683594 73.10546875 2.42335937 74.265625 2.34765625 75.4609375 C2.20066598 77.87982994 2.05991344 80.2991105 1.92578125 82.71875 C1.26176098 92.91540019 -0.52751002 101.31949865 -6 110 C-6.33 110 -6.66 110 -7 110 C-7.20086443 106.28400809 -7.1519437 105.22791555 -5 102 C-4.34 102 -3.68 102 -3 102 C-2.08867698 93.09026913 -1.68562704 84.2063128 -1.39453125 75.2578125 C-1.35714844 74.23429687 -1.31976563 73.21078125 -1.28125 72.15625 C-1.23581055 70.77663086 -1.23581055 70.77663086 -1.18945312 69.36914062 C-1 67 -1 67 0 64 C0.03954234 61.66700175 0.04401732 59.33291811 0 57 C-1.98 57.495 -1.98 57.495 -4 58 C-4.33 60.31 -4.66 62.62 -5 65 C-4.67 65 -4.34 65 -4 65 C-3.1562656 89.3125312 -3.1562656 89.3125312 -9 101 C-9.66 101 -10.32 101 -11 101 C-11 101.99 -11 102.98 -11 104 C-11.66 104 -12.32 104 -13 104 C-12.79503906 103.33613281 -12.59007813 102.67226562 -12.37890625 101.98828125 C-12.10949219 101.10527344 -11.84007813 100.22226563 -11.5625 99.3125 C-11.29566406 98.44238281 -11.02882813 97.57226562 -10.75390625 96.67578125 C-9.4732662 92.13050439 -8.86446409 87.85176656 -8.67578125 83.1328125 C-8.0190546 69.88835128 -7.11337194 58.8662502 -1 47 C4.17641002 36.08299358 7.62139512 26.54917425 5.3125 14.375 C3.07441397 8.61992164 0.56879887 4.47343206 -5 1.5 C-10.90459231 -0.85784058 -16.84661208 0.12502057 -23 1 C-15.68173284 -3.87884477 -8.01344043 -2.07755863 0 0 Z " fill="#3DAFD3" transform="translate(129,29)"/>
<path d="M0 0 C0.125 7.625 0.125 7.625 -1 11 C-1.13724811 12.73930138 -1.22460024 14.48277434 -1.28125 16.2265625 C-1.31863281 17.25910156 -1.35601562 18.29164062 -1.39453125 19.35546875 C-1.42933594 20.43441406 -1.46414062 21.51335937 -1.5 22.625 C-2.14852941 42.29705882 -2.14852941 42.29705882 -4 46 C-4.66 46 -5.32 46 -6 46 C-6.08636719 46.59167969 -6.17273438 47.18335938 -6.26171875 47.79296875 C-6.97082113 51.78085646 -7.7291856 54.59377841 -10 58 C-14.22730927 60.81820618 -17.97553073 61.2404449 -23 61 C-26.34357175 60.05507755 -27.41729806 58.9711699 -29.18359375 56.02734375 C-32.4400984 49.09741171 -32.42528826 42.53705298 -32 35 C-31.34 35 -30.68 35 -30 35 C-29.95101562 35.58007812 -29.90203125 36.16015625 -29.8515625 36.7578125 C-29.40350595 41.43923092 -28.701979 45.57485459 -27 50 C-25.56589632 50.24954005 -24.12739928 50.47392642 -22.6875 50.6875 C-21.88699219 50.81511719 -21.08648437 50.94273437 -20.26171875 51.07421875 C-17.91348119 51.24373967 -17.91348119 51.24373967 -16.39453125 49.51953125 C-15.93433594 49.01808594 -15.47414063 48.51664063 -15 48 C-14.01 48 -13.02 48 -12 48 C-12 47.01 -12 46.02 -12 45 C-11.34 45 -10.68 45 -10 45 C-9.5186659 43.27143541 -9.04003029 41.54211929 -8.5625 39.8125 C-8.29566406 38.84957031 -8.02882813 37.88664062 -7.75390625 36.89453125 C-7.07119982 34.27336303 -6.50107805 31.661065 -6 29 C-6.33 29 -6.66 29 -7 29 C-7.05827558 25.4375692 -7.09368885 21.87526181 -7.125 18.3125 C-7.14175781 17.30509766 -7.15851563 16.29769531 -7.17578125 15.25976562 C-7.18222656 14.28330078 -7.18867187 13.30683594 -7.1953125 12.30078125 C-7.20578613 11.40528564 -7.21625977 10.50979004 -7.22705078 9.5871582 C-6.97356638 6.69879885 -6.28614261 4.5922494 -5 2 C-1.85714286 0 -1.85714286 0 0 0 Z " fill="#26ACDA" transform="translate(130,85)"/>
<path d="M0 0 C2 1 2 1 3.0859375 3.66015625 C4.67934264 9.76093345 4.47323343 16.17396716 4.625 22.4375 C4.66367187 23.74138672 4.70234375 25.04527344 4.7421875 26.38867188 C4.83606701 29.59230999 4.92175154 32.79594832 5 36 C5.66 36 6.32 36 7 36 C7.45375 37.134375 7.9075 38.26875 8.375 39.4375 C9.57095806 43.04721692 9.57095806 43.04721692 12 44 C11.6695166 43.32042236 11.3390332 42.64084473 10.99853516 41.94067383 C9.79731733 38.40310201 9.8647544 35.67827169 10.0234375 31.94921875 C10.04846344 31.29041214 10.07348938 30.63160553 10.09927368 29.95283508 C10.1809646 27.86382617 10.27774491 25.77583634 10.375 23.6875 C10.43329195 22.2650146 10.49059405 20.84248826 10.546875 19.41992188 C10.68646486 15.94606723 10.83958749 12.47296255 11 9 C11.33 9 11.66 9 12 9 C12.01981934 9.589021 12.03963867 10.17804199 12.06005859 10.78491211 C12.15643277 13.50282351 12.26564712 16.22008103 12.375 18.9375 C12.4059375 19.86369141 12.436875 20.78988281 12.46875 21.74414062 C12.83370762 30.41188404 13.40054345 40.40054345 19.875 46.875 C22.42635969 48.22571984 24.15332499 48.0845547 27 48 C27.09796875 47.46375 27.1959375 46.9275 27.296875 46.375 C28.86311982 38.16571683 30.93138595 30.09370352 33 22 C34.23853632 25.61094391 33.79209453 28.40571952 33.125 32.125 C32.94195312 33.17945313 32.75890625 34.23390625 32.5703125 35.3203125 C32 38 32 38 31 40 C30.79907217 41.49579604 30.63663934 42.99696724 30.5 44.5 C30.11111111 48.77777778 30.11111111 48.77777778 29 51 C25.61964088 51.62599243 22.43830115 52 19 52 C19 52.66 19 53.32 19 54 C19.66 54 20.32 54 21 54 C21 54.66 21 55.32 21 56 C25.455 55.505 25.455 55.505 30 55 C30 54.34 30 53.68 30 53 C30.66 53 31.32 53 32 53 C32 51.35 32 49.7 32 48 C32.66 47.67 33.32 47.34 34 47 C34.65555119 44.47266765 34.65555119 44.47266765 35 42 C35.33 42 35.66 42 36 42 C36.99 38.7 37.98 35.4 39 32 C40.95597559 37.86792676 38.50574068 45.53359273 36.08203125 51.11328125 C33.98020842 54.43330343 31.3629409 57.01280765 28 59 C22.96078302 59.65022155 19.1454413 59.44115535 14.73046875 56.58203125 C4.12085743 46.88249946 2.60003888 33.25562621 1.875 19.75 C1.72902261 17.28631134 1.58066929 14.82276205 1.4296875 12.359375 C1.37022949 11.28139648 1.31077148 10.20341797 1.24951172 9.09277344 C1.00137776 6.01707771 0.5516984 3.03462586 0 0 Z " fill="#27ADD9" transform="translate(45,88)"/>
<path d="M0 0 C0.33 0.66 0.66 1.32 1 2 C2.32 2 3.64 2 5 2 C5.33 1.34 5.66 0.68 6 0 C10.78150348 8.74374207 10.41159512 17.30309258 10.125 26.9375 C10.06959891 29.19328796 10.02028766 31.44881557 9.9826355 33.70497131 C9.94717697 35.73319594 9.89233816 37.7610545 9.83642578 39.78881836 C9.7333121 43.15425895 9.7333121 43.15425895 12 46 C11.67 46.99 11.34 47.98 11 49 C7.7457985 46.16569547 6.4793247 44.31392226 6 40 C5.34 40 4.68 40 4 40 C2.87991288 33.26096345 2.68018338 26.55864136 2.48242188 19.73828125 C2.280771 14.46492072 1.61264776 10.01928519 0 5 C-0.125 2.0625 -0.125 2.0625 0 0 Z " fill="#23AEDD" transform="translate(46,84)"/>
<path d="M0 0 C1.0725 0.2475 2.145 0.495 3.25 0.75 C3.25 1.41 3.25 2.07 3.25 2.75 C4.735 3.245 4.735 3.245 6.25 3.75 C6.25 5.07 6.25 6.39 6.25 7.75 C5.26 7.75 4.27 7.75 3.25 7.75 C2.92 7.09 2.59 6.43 2.25 5.75 C-0.77934491 5.09227572 -0.77934491 5.09227572 -3.75 4.75 C-3.79898438 5.48605469 -3.84796875 6.22210938 -3.8984375 6.98046875 C-3.97320312 7.95628906 -4.04796875 8.93210937 -4.125 9.9375 C-4.19460937 10.90042969 -4.26421875 11.86335938 -4.3359375 12.85546875 C-4.75397957 15.77781946 -5.61501828 18.04039937 -6.75 20.75 C-6.9665625 22.5134375 -6.9665625 22.5134375 -7.1875 24.3125 C-7.75254871 27.76557544 -8.30460154 29.30460154 -10.75 31.75 C-11.41 31.75 -12.07 31.75 -12.75 31.75 C-12.75 33.4 -12.75 35.05 -12.75 36.75 C-13.41 36.75 -14.07 36.75 -14.75 36.75 C-14.75 37.41 -14.75 38.07 -14.75 38.75 C-19.205 39.245 -19.205 39.245 -23.75 39.75 C-23.75 39.09 -23.75 38.43 -23.75 37.75 C-24.41 37.75 -25.07 37.75 -25.75 37.75 C-26.41 36.43 -27.07 35.11 -27.75 33.75 C-27.13511719 33.8221875 -26.52023438 33.894375 -25.88671875 33.96875 C-24.67435547 34.10796875 -24.67435547 34.10796875 -23.4375 34.25 C-22.23673828 34.38921875 -22.23673828 34.38921875 -21.01171875 34.53125 C-18.63103445 34.79813463 -18.63103445 34.79813463 -15.75 34.75 C-15.70101562 34.01394531 -15.65203125 33.27789062 -15.6015625 32.51953125 C-15.52679688 31.54371094 -15.45203125 30.56789062 -15.375 29.5625 C-15.30539063 28.59957031 -15.23578125 27.63664062 -15.1640625 26.64453125 C-14.74386682 23.70712558 -13.85297074 21.49071516 -12.75 18.75 C-12.32056312 16.48882929 -11.94727072 14.21641435 -11.625 11.9375 C-11.45742187 10.77605469 -11.28984375 9.61460938 -11.1171875 8.41796875 C-10.99601562 7.53753906 -10.87484375 6.65710938 -10.75 5.75 C-10.09 5.75 -9.43 5.75 -8.75 5.75 C-8.75 8.06 -8.75 10.37 -8.75 12.75 C-7.59077872 11.01857146 -7.59077872 11.01857146 -6.75 8.75 C-6.95625 7.925 -7.1625 7.1 -7.375 6.25 C-7.75 3.75 -7.75 3.75 -6.25 1.375 C-3.75 -0.25 -3.75 -0.25 0 0 Z " fill="#2BABD4" transform="translate(89.75,104.25)"/>
<path d="M0 0 C0.66 0 1.32 0 2 0 C2.04898438 0.58007812 2.09796875 1.16015625 2.1484375 1.7578125 C2.59649405 6.43923092 3.298021 10.57485459 5 15 C10.9688623 16.24409811 10.9688623 16.24409811 16.5625 14.5625 C17.036875 14.046875 17.51125 13.53125 18 13 C18.33 13.66 18.66 14.32 19 15 C20.32 14.67 21.64 14.34 23 14 C22.690625 14.928125 22.690625 14.928125 22.375 15.875 C22.25125 16.57625 22.1275 17.2775 22 18 C22.66 18.66 23.32 19.32 24 20 C21.7232066 22.95983142 20.26389809 24.64983807 16.6171875 25.66015625 C12.84002901 26.1506231 9.804341 26.22731376 6.125 25.1875 C0.83867917 19.74569915 -0.24194291 13.25529368 -0.25 5.875 C-0.18665786 3.91591816 -0.11042591 1.95699259 0 0 Z " fill="#31A9D0" transform="translate(98,120)"/>
<path d="M0 0 C1.77734375 0.51953125 1.77734375 0.51953125 4 2 C5.35259335 4.56847297 6.48740199 7.00821081 7.5625 9.6875 C7.85318359 10.38294922 8.14386719 11.07839844 8.44335938 11.79492188 C9.02279971 13.18324536 9.5940211 14.57502935 10.15673828 15.97021484 C10.71210003 17.30700627 11.2985916 18.63134881 11.91748047 19.93994141 C13.69921086 23.73105088 14.06217463 24.75130148 13 29 C12.01 26.03 11.02 23.06 10 20 C6.06924356 20.57452746 6.06924356 20.57452746 3 23 C1.64792161 20.65498903 0.31881888 18.30112641 -1 15.9375 C-1.57234375 14.95233398 -1.57234375 14.95233398 -2.15625 13.94726562 C-4.68807124 9.35833963 -5.43578926 6.23628028 -5 1 C-3.68 1.33 -2.36 1.66 -1 2 C-0.67 1.34 -0.34 0.68 0 0 Z " fill="#33AFD7" transform="translate(42,65)"/>
<path d="M0 0 C-0.99 0.33 -1.98 0.66 -3 1 C-3 2.32 -3 3.64 -3 5 C-3.2981424 6.34164079 -3.62243192 7.67851173 -4 9 C-4.66 9 -5.32 9 -6 9 C-6 9.66 -6 10.32 -6 11 C-5.34 11.33 -4.68 11.66 -4 12 C-4.61875 12.825 -5.2375 13.65 -5.875 14.5 C-11.43174126 22.89422616 -10.35621922 32.50646543 -9 42 C-12.95672919 34.35032357 -12.80747981 26.3595941 -11 18 C-12.32 18 -13.64 18 -15 18 C-15 17.01 -15 16.02 -15 15 C-15.66 15 -16.32 15 -17 15 C-15.7516102 8.75805101 -11.83254067 4.86603254 -7 1 C-2.46303211 -1.23151606 -2.46303211 -1.23151606 0 0 Z " fill="#26ADDA" transform="translate(53,22)"/>
<path d="M0 0 C0 0.99 0 1.98 0 3 C2.97 2.34 5.94 1.68 9 1 C7.02 1.99 7.02 1.99 5 3 C5 3.66 5 4.32 5 5 C6.918125 5.185625 6.918125 5.185625 8.875 5.375 C12.75 5.75 12.75 5.75 15 8 C15 8.99 15 9.98 15 11 C9.83432309 13.58283846 1.11092478 11.49980343 -4.3125 9.9375 C-5.199375 9.628125 -6.08625 9.31875 -7 9 C-7 8.34 -7 7.68 -7 7 C-8.32 6.34 -9.64 5.68 -11 5 C-5.47293087 5.72724594 -0.30039859 7.33445973 5 9 C4.67 7.68 4.34 6.36 4 5 C1.36 5.33 -1.28 5.66 -4 6 C-4.66 5.01 -5.32 4.02 -6 3 C-3.375 0 -3.375 0 0 0 Z " fill="#61B9D1" transform="translate(97,29)"/>
<path d="M0 0 C0 0.66 0 1.32 0 2 C0.61875 2.28875 1.2375 2.5775 1.875 2.875 C4 4 4 4 6 6 C5.67 6.66 5.34 7.32 5 8 C5.66 8 6.32 8 7 8 C7.33 10.31 7.66 12.62 8 15 C8.66 15 9.32 15 10 15 C10.05397335 17.4377963 10.09365616 19.87439685 10.125 22.3125 C10.14175781 23.00279297 10.15851563 23.69308594 10.17578125 24.40429688 C10.21217794 28.17135396 10.14378864 29.78431704 8 33 C7.34 33 6.68 33 6 33 C5.67 33.66 5.34 34.32 5 35 C5.165 33.865625 5.33 32.73125 5.5 31.5625 C6.64230503 22.19228775 6.65977508 13.37617495 0.58984375 5.58203125 C-3.47619322 1.53597481 -7.77355119 0.01001777 -13.47265625 -0.015625 C-16.67132139 0.22105534 -19.82510199 0.54854619 -23 1 C-15.68173284 -3.87884477 -8.01344043 -2.07755863 0 0 Z " fill="#5CBDD9" transform="translate(129,29)"/>
<path d="M0 0 C0 2.31 0 4.62 0 7 C0.66 7 1.32 7 2 7 C2.02724423 9.83339965 2.04695589 12.66653117 2.0625 15.5 C2.07087891 16.29148437 2.07925781 17.08296875 2.08789062 17.8984375 C2.14429187 31.66034123 2.14429187 31.66034123 -1.5625 36 C-2.366875 36.66 -3.17125 37.32 -4 38 C-4.66 37.67 -5.32 37.34 -6 37 C-5.52525225 34.85318469 -5.04508251 32.70756772 -4.5625 30.5625 C-4.29566406 29.36753906 -4.02882812 28.17257813 -3.75390625 26.94140625 C-3 24 -3 24 -2 23 C-1.76346477 20.47403741 -1.57826308 17.96892793 -1.4375 15.4375 C-1.37272461 14.37112305 -1.37272461 14.37112305 -1.30664062 13.28320312 C-1.20028223 11.52238088 -1.09961154 9.7612168 -1 8 C-1.66 8 -2.32 8 -3 8 C-3.33 6.02 -3.66 4.04 -4 2 C-1 0 -1 0 0 0 Z " fill="#25AEDC" transform="translate(140,36)"/>
<path d="M0 0 C0.75732422 0.00644531 1.51464844 0.01289063 2.29492188 0.01953125 C3.08060547 0.03628906 3.86628906 0.05304687 4.67578125 0.0703125 C5.47306641 0.07933594 6.27035156 0.08835937 7.09179688 0.09765625 C9.05742025 0.12119665 11.022889 0.15706703 12.98828125 0.1953125 C12.65828125 0.9996875 12.32828125 1.8040625 11.98828125 2.6328125 C10.92769084 4.89212375 10.92769084 4.89212375 10.98828125 6.1953125 C2.57328125 6.6903125 2.57328125 6.6903125 -6.01171875 7.1953125 C-6.34171875 8.8453125 -6.67171875 10.4953125 -7.01171875 12.1953125 C-8.00171875 12.1953125 -8.99171875 12.1953125 -10.01171875 12.1953125 C-10.01171875 11.5353125 -10.01171875 10.8753125 -10.01171875 10.1953125 C-9.35171875 10.1953125 -8.69171875 10.1953125 -8.01171875 10.1953125 C-8.34171875 8.2153125 -8.67171875 6.2353125 -9.01171875 4.1953125 C-8.35171875 4.1953125 -7.69171875 4.1953125 -7.01171875 4.1953125 C-7.01171875 3.5353125 -7.01171875 2.8753125 -7.01171875 2.1953125 C-3.96490814 0.16410543 -3.41053551 -0.05128625 0 0 Z " fill="#34A9CC" transform="translate(57.01171875,20.8046875)"/>
<path d="M0 0 C1.31538327 4.15771494 0.34433068 6.8879297 -1 11 C-0.67 11 -0.34 11 0 11 C0.8437344 35.3125312 0.8437344 35.3125312 -5 47 C-5.66 47 -6.32 47 -7 47 C-7 47.99 -7 48.98 -7 50 C-7.66 50 -8.32 50 -9 50 C-8.79503906 49.33613281 -8.59007813 48.67226562 -8.37890625 47.98828125 C-8.10949219 47.10527344 -7.84007813 46.22226563 -7.5625 45.3125 C-7.29566406 44.44238281 -7.02882813 43.57226562 -6.75390625 42.67578125 C-5.45536564 38.06697132 -4.83996383 33.66700109 -4.5703125 28.88671875 C-4.46009766 27.1377832 -4.46009766 27.1377832 -4.34765625 25.35351562 C-4.19995596 22.92164335 -4.05925883 20.48933499 -3.92578125 18.05664062 C-3.49650978 11.4538634 -2.74606409 6.03984042 0 0 Z " fill="#70CAE2" transform="translate(125,83)"/>
<path d="M0 0 C3 1 3 1 4.6875 4.125 C8.08457949 14.13649882 6.40868492 25.24061043 3 35 C2.67 35 2.34 35 2 35 C2.33 26.42 2.66 17.84 3 9 C2.34 9 1.68 9 1 9 C0.67 6.03 0.34 3.06 0 0 Z " fill="#5FBEDA" transform="translate(139,34)"/>
<path d="M0 0 C0 0.33 0 0.66 0 1 C-0.63502441 0.96447021 -1.27004883 0.92894043 -1.92431641 0.89233398 C-4.82421908 0.73393149 -7.72455526 0.58563116 -10.625 0.4375 C-12.12353516 0.35338867 -12.12353516 0.35338867 -13.65234375 0.26757812 C-18.59387286 0.02213794 -23.13590113 -0.12056885 -28 1 C-28.33 1.99 -28.66 2.98 -29 4 C-32.3 4 -35.6 4 -39 4 C-35.84878137 2.42439068 -32.85808279 1.13963353 -29.5625 -0.0625 C-28.63566406 -0.40410156 -27.70882812 -0.74570312 -26.75390625 -1.09765625 C-17.53953861 -4.11683203 -8.83132172 -3.99908908 0 0 Z " fill="#6DC4DD" transform="translate(130,22)"/>
<path d="M0 0 C2.97 0.495 2.97 0.495 6 1 C5.071875 2.485 5.071875 2.485 4.125 4 C-1.00357424 13.03865744 -0.42421786 22.030475 1 32 C-2.95672919 24.35032357 -2.80747981 16.3595941 -1 8 C-2.32 8 -3.64 8 -5 8 C-4.34 6.35 -3.68 4.7 -3 3 C-2.01 3 -1.02 3 0 3 C0 2.01 0 1.02 0 0 Z " fill="#66C8E4" transform="translate(43,32)"/>
<path d="M0 0 C1.95597559 5.86792676 -0.49425932 13.53359273 -2.91796875 19.11328125 C-5.01979158 22.43330343 -7.6370591 25.01280765 -11 27 C-13.85557542 27.44016577 -16.06984211 27.28821225 -19 27 C-19.66 26.34 -20.32 25.68 -21 25 C-20.37351563 25.01160156 -19.74703125 25.02320313 -19.1015625 25.03515625 C-17.87566406 25.04869141 -17.87566406 25.04869141 -16.625 25.0625 C-15.40683594 25.07990234 -15.40683594 25.07990234 -14.1640625 25.09765625 C-11.95062858 25.14466334 -11.95062858 25.14466334 -10 24 C-9.67 23.01 -9.34 22.02 -9 21 C-8.34 21 -7.68 21 -7 21 C-7 19.35 -7 17.7 -7 16 C-6.34 15.67 -5.68 15.34 -5 15 C-4.34444881 12.47266765 -4.34444881 12.47266765 -4 10 C-3.67 10 -3.34 10 -3 10 C-2.01 6.7 -1.02 3.4 0 0 Z " fill="#89D5E7" transform="translate(84,120)"/>
<path d="M0 0 C8.44129433 0.08478979 15.76867205 2.96814271 23.609375 5.85498047 C25.87550955 6.6281116 28.13580571 7.12942193 30.5 7.5 C30.5 7.83 30.5 8.16 30.5 8.5 C22.42386148 9.14323227 16.01333004 7.3917284 8.5 4.5 C8.5 4.17 8.5 3.84 8.5 3.5 C3.22 3.17 -2.06 2.84 -7.5 2.5 C-4.88575276 -0.11424724 -3.65809111 0.11085125 0 0 Z " fill="#7BCEE2" transform="translate(60.5,18.5)"/>
<path d="M0 0 C1.23853632 3.61094391 0.79209453 6.40571952 0.125 10.125 C-0.05804688 11.17945312 -0.24109375 12.23390625 -0.4296875 13.3203125 C-1 16 -1 16 -2 18 C-2.20092783 19.49579604 -2.36336066 20.99696724 -2.5 22.5 C-2.88888889 26.77777778 -2.88888889 26.77777778 -4 29 C-9.29441695 29.50423019 -11.81413519 28.18923033 -16 25 C-15.67 24.34 -15.34 23.68 -15 23 C-14.443125 23.495 -13.88625 23.99 -13.3125 24.5 C-10.5921272 26.26456614 -9.16938913 26.12614484 -6 26 C-5.85304688 25.195625 -5.85304688 25.195625 -5.703125 24.375 C-4.13688018 16.16571683 -2.06861405 8.09370352 0 0 Z " fill="#84D4E6" transform="translate(78,110)"/>
<path d="M0 0 C1.98 0.495 1.98 0.495 4 1 C3.34 7.93 2.68 14.86 2 22 C1.01 21.67 0.02 21.34 -1 21 C-1.02710123 18.4374282 -1.04688771 15.87514635 -1.0625 13.3125 C-1.07087891 12.59126953 -1.07925781 11.87003906 -1.08789062 11.12695312 C-1.10543632 7.28444618 -0.93524221 3.73360474 0 0 Z " fill="#23AFDC" transform="translate(37,39)"/>
<path d="M0 0 C0 0.99 0 1.98 0 3 C-0.78632812 2.83628906 -1.57265625 2.67257813 -2.3828125 2.50390625 C-6.90846849 1.87344229 -11.31329568 1.89284476 -15.875 1.9375 C-16.75414063 1.94201172 -17.63328125 1.94652344 -18.5390625 1.95117188 C-20.69273803 1.96287663 -22.84637817 1.98080931 -25 2 C-25 1.34 -25 0.68 -25 0 C-16.79567172 -2.5244087 -7.99573557 -3.68359299 0 0 Z " fill="#20AFE0" transform="translate(128,25)"/>
<path d="M0 0 C1.60080151 4.00200378 0.29279692 7.04556236 -1 11 C-1.66 11 -2.32 11 -3 11 C-3 11.66 -3 12.32 -3 13 C-7.455 13.495 -7.455 13.495 -12 14 C-12 13.34 -12 12.68 -12 12 C-12.66 12 -13.32 12 -14 12 C-14.66 10.68 -15.32 9.36 -16 8 C-15.07767578 8.10828125 -15.07767578 8.10828125 -14.13671875 8.21875 C-13.32847656 8.3115625 -12.52023438 8.404375 -11.6875 8.5 C-10.88699219 8.5928125 -10.08648437 8.685625 -9.26171875 8.78125 C-6.88103445 9.04813463 -6.88103445 9.04813463 -4 9 C-3.71125 8.071875 -3.4225 7.14375 -3.125 6.1875 C-2 3 -2 3 0 0 Z " fill="#22B0DE" transform="translate(78,130)"/>
<path d="M0 0 C0.33 0 0.66 0 1 0 C1.68133014 33.725842 1.68133014 33.725842 -6.62890625 42.7734375 C-7.08136719 43.17820313 -7.53382812 43.58296875 -8 44 C-8.20086443 40.28400809 -8.1519437 39.22791555 -6 36 C-5.34 36 -4.68 36 -4 36 C-3.67 32.37 -3.34 28.74 -3 25 C-2.34 25 -1.68 25 -1 25 C-1.01160156 24.11699219 -1.02320313 23.23398438 -1.03515625 22.32421875 C-1.09162182 14.81429809 -0.852857 7.46249871 0 0 Z " fill="#8ED9E8" transform="translate(130,95)"/>
<path d="M0 0 C2 1 2 1 3.0859375 3.66015625 C4.67934264 9.76093345 4.47323343 16.17396716 4.625 22.4375 C4.66367187 23.74138672 4.70234375 25.04527344 4.7421875 26.38867188 C4.83606701 29.59230999 4.92175154 32.79594832 5 36 C5.66 36 6.32 36 7 36 C6.505 38.475 6.505 38.475 6 41 C0.91827858 33.37741786 1.72044944 21.22814897 1.34155273 12.21850586 C1.16047164 8.06938696 0.78325893 4.09107144 0 0 Z " fill="#92DBEA" transform="translate(45,88)"/>
<path d="M0 0 C2.54409568 1.27204784 2.66031037 2.07880578 3.61328125 4.71484375 C5.57325116 10.94012262 5.32703342 17.0974517 5.1875 23.5625 C5.17396484 24.76197266 5.16042969 25.96144531 5.14648438 27.19726562 C5.111408 30.13198879 5.06225427 33.06574882 5 36 C4.67 36 4.34 36 4 36 C3.13906196 31.41781738 2.77998363 26.89780881 2.5625 22.25 C2.26782496 16.70781806 1.69908239 11.42974544 0.40234375 6.015625 C0 4 0 4 0 0 Z " fill="#40AACB" transform="translate(51,84)"/>
<path d="M0 0 C0 0.66 0 1.32 0 2 C0.99 2.33 1.98 2.66 3 3 C3 4.32 3 5.64 3 7 C2.01 7 1.02 7 0 7 C-0.33 6.34 -0.66 5.68 -1 5 C-4.02934491 4.34227572 -4.02934491 4.34227572 -7 4 C-7.33 5.32 -7.66 6.64 -8 8 C-8.99 7.67 -9.98 7.34 -11 7 C-10.64780657 4.39376858 -10.23526531 2.39210885 -8.875 0.125 C-5.87289213 -1.67626472 -3.29820792 -0.68453372 0 0 Z " fill="#23B0DD" transform="translate(93,105)"/>
<path d="M0 0 C0.33 0 0.66 0 1 0 C1.01981934 0.589021 1.03963867 1.17804199 1.06005859 1.78491211 C1.15643277 4.50282351 1.26564712 7.22008103 1.375 9.9375 C1.4059375 10.86369141 1.436875 11.78988281 1.46875 12.74414062 C1.81261035 20.91082404 3.23563893 28.29927989 6 36 C2.59677815 34.59177027 0.85546271 33.19631021 -1 30 C-1.2487793 26.79199219 -1.2487793 26.79199219 -1.07421875 23.046875 C-1.04777786 22.38665344 -1.02133698 21.72643188 -0.99409485 21.04620361 C-0.90662607 18.94651787 -0.79738421 16.84862018 -0.6875 14.75 C-0.62420997 13.32297985 -0.56234496 11.89589574 -0.50195312 10.46875 C-0.35113743 6.97827392 -0.18078559 3.48906682 0 0 Z " fill="#7CD0E3" transform="translate(56,97)"/>
<path d="M0 0 C0 0.66 0 1.32 0 2 C0.61875 2.28875 1.2375 2.5775 1.875 2.875 C4 4 4 4 6 6 C5.67 6.66 5.34 7.32 5 8 C5.66 8 6.32 8 7 8 C6.67 9.65 6.34 11.3 6 13 C5.443125 12.278125 4.88625 11.55625 4.3125 10.8125 C-1.6099123 3.57758959 -1.6099123 3.57758959 -10 0 C-14.37218691 0.05625036 -18.66315964 0.45871015 -23 1 C-15.68173284 -3.87884477 -8.01344043 -2.07755863 0 0 Z " fill="#80D5E6" transform="translate(129,29)"/>
<path d="M0 0 C0.66 0.33 1.32 0.66 2 1 C1.40399283 6.20893936 -0.28993297 10.40997503 -2.4375 15.125 C-2.90639648 16.17880859 -2.90639648 16.17880859 -3.38476562 17.25390625 C-4.85355836 20.53928197 -6.35047366 23.80041625 -8 27 C-7.88529863 25.24929483 -7.75780972 23.49942464 -7.625 21.75 C-7.55539063 20.77546875 -7.48578125 19.8009375 -7.4140625 18.796875 C-7.01057054 16.071401 -6.28915658 14.39487586 -5 12 C-4.855625 10.96875 -4.71125 9.9375 -4.5625 8.875 C-4.376875 7.92625 -4.19125 6.9775 -4 6 C-3.01 5.34 -2.02 4.68 -1 4 C-0.27617533 1.94074861 -0.27617533 1.94074861 0 0 Z " fill="#74C9E1" transform="translate(139,68)"/>
<path d="M0 0 C0.66 0 1.32 0 2 0 C2.02578125 0.556875 2.0515625 1.11375 2.078125 1.6875 C2.46716908 6.92191125 3.52997844 10.7244467 6.16015625 15.2734375 C7 17 7 17 7 20 C6.01 20.33 5.02 20.66 4 21 C3.67 19.02 3.34 17.04 3 15 C2.34 15 1.68 15 1 15 C-0.44207941 12.11584117 -0.09394887 9.58278472 -0.0625 6.375 C-0.05347656 5.18648438 -0.04445313 3.99796875 -0.03515625 2.7734375 C-0.02355469 1.85820313 -0.01195313 0.94296875 0 0 Z " fill="#22AFE0" transform="translate(98,120)"/>
<path d="M0 0 C0.33 0 0.66 0 1 0 C1 11 1 11 -1 15 C-3.125 16.3125 -3.125 16.3125 -5 17 C-5.64317031 9.92512658 -3.82735898 5.90506815 0 0 Z " fill="#2DAACF" transform="translate(135,62)"/>
<path d="M0 0 C0.33 0.66 0.66 1.32 1 2 C1.66 2 2.32 2 3 2 C3.86591983 6.55455339 4.18670737 10.95383455 4.31640625 15.5859375 C4.33718735 16.28772125 4.35796844 16.989505 4.37937927 17.71255493 C4.44426324 19.93327958 4.5034723 22.15411276 4.5625 24.375 C4.60574354 25.88933371 4.6493596 27.40365683 4.69335938 28.91796875 C4.79988086 32.61186655 4.90131677 36.30588354 5 40 C4.67 40 4.34 40 4 40 C2.87991288 33.26096345 2.68018338 26.55864136 2.48242188 19.73828125 C2.280771 14.46492072 1.61264776 10.01928519 0 5 C-0.125 2.0625 -0.125 2.0625 0 0 Z " fill="#31A2C5" transform="translate(46,84)"/>
<path d="M0 0 C0 0.99 0 1.98 0 3 C2.97 2.34 5.94 1.68 9 1 C7.02 1.99 7.02 1.99 5 3 C5 3.66 5 4.32 5 5 C7.64 5.33 10.28 5.66 13 6 C13 6.33 13 6.66 13 7 C10.20677782 6.91327254 7.41687472 6.80644643 4.625 6.6875 C3.8309375 6.66494141 3.036875 6.64238281 2.21875 6.61914062 C0.13784419 6.52214925 -1.93441332 6.27005175 -4 6 C-4.66 5.01 -5.32 4.02 -6 3 C-3.375 0 -3.375 0 0 0 Z " fill="#23B2E3" transform="translate(97,29)"/>
<path d="M0 0 C1.125 3.75 1.125 3.75 0 6 C-0.66 6 -1.32 6 -2 6 C-2.66 8.64 -3.32 11.28 -4 14 C-4.99 13.67 -5.98 13.34 -7 13 C-6.67 12.01 -6.34 11.02 -6 10 C-7.65 10.33 -9.3 10.66 -11 11 C-10.67 10.01 -10.34 9.02 -10 8 C-9.34 8 -8.68 8 -8 8 C-8 7.01 -8 6.02 -8 5 C-7.34 5 -6.68 5 -6 5 C-5.67 4.34 -5.34 3.68 -5 3 C-3.68 3 -2.36 3 -1 3 C-0.67 2.01 -0.34 1.02 0 0 Z " fill="#2FA8D0" transform="translate(126,125)"/>
<path d="M0 0 C4.95 0 9.9 0 15 0 C14.67 0.99 14.34 1.98 14 3 C10.83321116 4.2710735 7.62266213 4.10265074 4.25 4.0625 C3.26515625 4.05347656 2.2803125 4.04445313 1.265625 4.03515625 C0.51796875 4.02355469 -0.2296875 4.01195312 -1 4 C-0.67 2.68 -0.34 1.36 0 0 Z " fill="#24ADDA" transform="translate(54,22)"/>
<path d="M0 0 C2.40203149 3.60304723 4.19869191 7.34900632 6.0625 11.25 C6.42666016 11.98863281 6.79082031 12.72726563 7.16601562 13.48828125 C9.34628394 18.05838156 10.56571544 21.94893648 11 27 C9 24 9 24 8.0625 21 C6.98703194 17.96338429 6.23175216 17.14248207 4 15 C0.96472599 10.09686506 0.36275768 5.62899853 0 0 Z " fill="#83D2E3" transform="translate(45,67)"/>
<path d="M0 0 C1.28261719 -0.04898437 2.56523438 -0.09796875 3.88671875 -0.1484375 C7.3125 0.375 7.3125 0.375 9.76953125 2.8984375 C10.27871094 3.71570313 10.78789063 4.53296875 11.3125 5.375 C8.45862318 4.85611331 5.86914961 4.21852339 3.125 3.25 C-3.26088196 1.78438775 -9.77347235 2.41798617 -15.6875 5.375 C-15.3575 4.055 -15.0275 2.735 -14.6875 1.375 C-9.77603072 0.59983926 -4.98128558 0.13095392 0 0 Z " fill="#78CFE2" transform="translate(65.6875,26.625)"/>
<path d="M0 0 C1.03769531 -0.01417969 2.07539062 -0.02835938 3.14453125 -0.04296875 C6.22520533 0.19035573 8.40511592 0.88631114 11.1875 2.1875 C8.17718256 3.12173645 7.32099732 3.23199911 4.1875 2.1875 C-3.36124864 1.48854179 -9.71323791 3.76336173 -16.8125 6.1875 C-16.8125 5.1975 -16.8125 4.2075 -16.8125 3.1875 C-16.18601562 3.05472656 -15.55953125 2.92195313 -14.9140625 2.78515625 C-14.09679687 2.60855469 -13.27953125 2.43195312 -12.4375 2.25 C-11.62539062 2.07597656 -10.81328125 1.90195312 -9.9765625 1.72265625 C-3.08746608 0.01903493 -3.08746608 0.01903493 0 0 Z " fill="#3BA7C6" transform="translate(115.8125,25.8125)"/>
<path d="M0 0 C0.6909375 0.03544922 1.381875 0.07089844 2.09375 0.10742188 C6.73978792 0.39998253 10.81645031 1.2657465 15.25 2.6875 C13.25 3.6875 13.25 3.6875 10.8046875 3.25390625 C5.9788423 2.48495289 1.25233919 2.58204241 -3.625 2.625 C-5.08679688 2.63176758 -5.08679688 2.63176758 -6.578125 2.63867188 C-8.96881434 2.65039094 -11.3593744 2.66679781 -13.75 2.6875 C-9.01333388 -0.47027741 -5.47303242 -0.36453592 0 0 Z " fill="#2EA9CF" transform="translate(115.75,21.3125)"/>
<path d="M0 0 C1.98 0 3.96 0 6 0 C6.33 3.3 6.66 6.6 7 10 C6 8 5 6 4 4 C3.34 4 2.68 4 2 4 C1.34 5.98 0.68 7.96 0 10 C-0.33 10 -0.66 10 -1 10 C-1.125 3.375 -1.125 3.375 0 0 Z " fill="#88D9E9" transform="translate(86,109)"/>
<path d="M0 0 C0.66 0 1.32 0 2 0 C2.33 2.31 2.66 4.62 3 7 C3.33 7 3.66 7 4 7 C4.33 10.96 4.66 14.92 5 19 C4.34 18.67 3.68 18.34 3 18 C2.1484375 14.98046875 2.1484375 14.98046875 1.375 11.1875 C1.11460938 9.94355469 0.85421875 8.69960937 0.5859375 7.41796875 C0 4 0 4 0 0 Z " fill="#89D5E7" transform="translate(93,119)"/>
<path d="M0 0 C2.5 2.25 2.5 2.25 5 5 C5 6.32 5 7.64 5 9 C4.01 9.33 3.02 9.66 2 10 C-1.07692308 5.69230769 -1.07692308 5.69230769 -0.6875 2.1875 C-0.460625 1.465625 -0.23375 0.74375 0 0 Z " fill="#58BED7" transform="translate(52,127)"/>
<path d="M0 0 C1.32 1.32 2.64 2.64 4 4 C2.84826645 6.46800047 1.95216435 8.04783565 0 10 C-0.99 9.34 -1.98 8.68 -3 8 C-3.1875 4.375 -3.1875 4.375 -3 1 C-2.01 2.485 -2.01 2.485 -1 4 C-0.34 3.67 0.32 3.34 1 3 C0.67 2.01 0.34 1.02 0 0 Z " fill="#47BDE2" transform="translate(137,29)"/>
<path d="M0 0 C0.33 0 0.66 0 1 0 C1.18216119 4.64511035 0.80293791 7.75779316 -1 12 C-1.3813074 14.32597511 -1.72460254 16.65912158 -2 19 C-2.33 19 -2.66 19 -3 19 C-2.88608368 16.39491364 -2.75934452 13.79154454 -2.625 11.1875 C-2.5940625 10.44951172 -2.563125 9.71152344 -2.53125 8.95117188 C-2.32653852 5.18106885 -2.13566173 3.20349259 0 0 Z " fill="#38A8CC" transform="translate(84,113)"/>
<path d="M0 0 C0.66 0.33 1.32 0.66 2 1 C1.46375 1.33 0.9275 1.66 0.375 2 C-0.07875 2.66 -0.5325 3.32 -1 4 C-0.6719572 5.90101012 -0.6719572 5.90101012 0 7.9375 C0.6484375 10.05859375 0.6484375 10.05859375 1 12 C-0.375 14.5 -0.375 14.5 -2 16 C-3.15941038 12.52176885 -2.70820884 10.54104422 -2 7 C-2.66 7 -3.32 7 -4 7 C-2.92598892 4.08482708 -2.22189824 2.22189824 0 0 Z " fill="#55C3E4" transform="translate(83,103)"/>
<path d="M0 0 C0.99 0.33 1.98 0.66 3 1 C3.33 2.98 3.66 4.96 4 7 C4.66 7 5.32 7 6 7 C5.67 8.65 5.34 10.3 5 12 C1.75254486 7.86687528 0 5.36067372 0 0 Z " fill="#73CAE0" transform="translate(37,69)"/>
<path d="M0 0 C-2.90600261 1.25664978 -4.79604584 2 -8 2 C-8.33 2.99 -8.66 3.98 -9 5 C-12.3 5 -15.6 5 -19 5 C-15.84138111 3.42069055 -12.79123605 2.06479723 -9.5 0.8125 C-8.5615625 0.44769531 -7.623125 0.08289063 -6.65625 -0.29296875 C-3.91128353 -1.02361424 -2.6236444 -0.97149097 0 0 Z " fill="#8EDAE8" transform="translate(110,21)"/>
<path d="M0 0 C3.86606247 3.22171872 5.03577168 6.09120127 6 11 C5.625 13.4375 5.625 13.4375 5 15 C4.71125 14.236875 4.4225 13.47375 4.125 12.6875 C3.03730987 9.84970692 3.03730987 9.84970692 1 7 C0.60612212 4.67612053 0.26513915 2.34206251 0 0 Z " fill="#7DD0E2" transform="translate(96,105)"/>
<path d="M0 0 C0.7425 0.495 0.7425 0.495 1.5 1 C5.09090894 2.43636358 8.14456127 2.12851462 12 2 C12.33 3.32 12.66 4.64 13 6 C11.01739401 5.57835981 9.03892755 5.13721222 7.0625 4.6875 C5.96035156 4.44386719 4.85820313 4.20023438 3.72265625 3.94921875 C2.82417969 3.63597656 1.92570312 3.32273438 1 3 C0.67 2.01 0.34 1.02 0 0 Z " fill="#28AED8" transform="translate(89,32)"/>
<path d="M0 0 C2.97 0 5.94 0 9 0 C9 0.99 9 1.98 9 3 C10.32 3.66 11.64 4.32 13 5 C3.40546697 3.25740319 3.40546697 3.25740319 0 0 Z " fill="#7ACCDF" transform="translate(77,32)"/>
<path d="M0 0 C0.66 0 1.32 0 2 0 C2.33 1.98 2.66 3.96 3 6 C3.66 6 4.32 6 5 6 C5 9.63 5 13.26 5 17 C4.67 17 4.34 17 4 17 C4 14.36 4 11.72 4 9 C3.34 9 2.68 9 2 9 C1.34 6.03 0.68 3.06 0 0 Z " fill="#3CA8CB" transform="translate(91,110)"/>
<path d="M0 0 C-0.33 2.31 -0.66 4.62 -1 7 C-2.65 7.66 -4.3 8.32 -6 9 C-3.4 0 -3.4 0 0 0 Z " fill="#70C8DF" transform="translate(42,28)"/>
<path d="M0 0 C2.475 0.99 2.475 0.99 5 2 C5 2.66 5 3.32 5 4 C5.66 4 6.32 4 7 4 C7.33 5.32 7.66 6.64 8 8 C4.11137013 6.73882275 2.10624401 5.54735833 0 2 C0 1.34 0 0.68 0 0 Z " fill="#82CEE0" transform="translate(55,137)"/>
<path d="M0 0 C0.33 0.66 0.66 1.32 1 2 C1.66 2 2.32 2 3 2 C3.33 5.3 3.66 8.6 4 12 C3.34 12 2.68 12 2 12 C0.70756464 7.8803623 -0.26252625 4.33168317 0 0 Z " fill="#2FA8D0" transform="translate(46,84)"/>
<path d="M0 0 C-1.32 0.33 -2.64 0.66 -4 1 C-4 1.66 -4 2.32 -4 3 C-1.36 3.33 1.28 3.66 4 4 C4 4.33 4 4.66 4 5 C2.56208484 4.85831863 1.1246763 4.71148957 -0.3125 4.5625 C-1.11300781 4.48128906 -1.91351563 4.40007813 -2.73828125 4.31640625 C-5 4 -5 4 -8 3 C-8 2.34 -8 1.68 -8 1 C-3.375 -1.125 -3.375 -1.125 0 0 Z " fill="#A4EEF8" transform="translate(106,31)"/>
<path d="M0 0 C0 0.33 0 0.66 0 1 C-1.9363704 1.50435694 -3.87414146 2.00333874 -5.8125 2.5 C-6.89144531 2.7784375 -7.97039063 3.056875 -9.08203125 3.34375 C-12 4 -12 4 -15 4 C-14.67 3.01 -14.34 2.02 -14 1 C-9.27685687 0.22887459 -4.78478822 -0.09764874 0 0 Z " fill="#8DDBEA" transform="translate(65,27)"/>
<path d="M0 0 C3.15467773 0.76943359 4.58588104 1.32952169 6.3125 4.125 C6.539375 4.74375 6.76625 5.3625 7 6 C2.75354935 6 0.61475228 4.18249194 -3 2 C-2.01 1.34 -1.02 0.68 0 0 Z " fill="#73CDE2" transform="translate(130,23)"/>
<path d="M0 0 C1.98 0 3.96 0 6 0 C4.35 1.98 2.7 3.96 1 6 C0.34 5.67 -0.32 5.34 -1 5 C-0.67 3.35 -0.34 1.7 0 0 Z " fill="#65C4DB" transform="translate(116,139)"/>
<path d="M0 0 C1.24546405 2.49092811 0.7767578 3.41080733 0 6 C-2.31 6 -4.62 6 -7 6 C-7.33 5.34 -7.66 4.68 -8 4 C-6.576875 3.566875 -6.576875 3.566875 -5.125 3.125 C-1.94788422 2.23174891 -1.94788422 2.23174891 0 0 Z " fill="#75D1E5" transform="translate(115,133)"/>
<path d="M0 0 C0.66 0.33 1.32 0.66 2 1 C1.01 1.33 0.02 1.66 -1 2 C-1 2.66 -1 3.32 -1 4 C-2.96466413 5.06775224 -4.96855359 6.06553465 -7 7 C-7.66 6.67 -8.32 6.34 -9 6 C-3.375 1.125 -3.375 1.125 0 0 Z " fill="#7FCDE0" transform="translate(51,21)"/>
<path d="M0 0 C4.29 0 8.58 0 13 0 C10 3 10 3 7.7734375 3.14453125 C6.98195313 3.03496094 6.19046875 2.92539063 5.375 2.8125 C4.57835938 2.71582031 3.78171875 2.61914062 2.9609375 2.51953125 C2.31382813 2.34808594 1.66671875 2.17664063 1 2 C0.67 1.34 0.34 0.68 0 0 Z " fill="#3CA5C8" transform="translate(62,143)"/>
<path d="M0 0 C0.99 0.33 1.98 0.66 3 1 C2.67 2.32 2.34 3.64 2 5 C0.02 5.33 -1.96 5.66 -4 6 C-3.6875 4.125 -3.6875 4.125 -3 2 C-2.01 1.34 -1.02 0.68 0 0 Z " fill="#25AEDD" transform="translate(118,134)"/>
<path d="M0 0 C0.33 0.66 0.66 1.32 1 2 C3.8986087 3.75986957 6.67277559 4.4454626 10 5 C10 5.66 10 6.32 10 7 C3.375 6.25 3.375 6.25 0 4 C0 2.68 0 1.36 0 0 Z " fill="#36AAC8" transform="translate(61,133)"/>
<path d="M0 0 C1.10844919 3.32534757 0.84454356 5.62182575 0 9 C-0.99 9.33 -1.98 9.66 -3 10 C-2.39009109 6.44219804 -1.4216319 3.3171411 0 0 Z " fill="#83D3E2" transform="translate(133,65)"/>
<path d="M0 0 C0.33 0 0.66 0 1 0 C0.25 7.625 0.25 7.625 -2 11 C-2 8.36 -2 5.72 -2 3 C-1.34 3 -0.68 3 0 3 C0 2.01 0 1.02 0 0 Z " fill="#7ECDE1" transform="translate(143,58)"/>
<path d="M0 0 C0.66 0.66 1.32 1.32 2 2 C1.34 2.66 0.68 3.32 0 4 C-2.625 3.625 -2.625 3.625 -5 3 C-5 2.34 -5 1.68 -5 1 C-2.625 0.375 -2.625 0.375 0 0 Z " fill="#20B0E0" transform="translate(112,140)"/>
<path d="M0 0 C0.99 0.99 1.98 1.98 3 3 C2.1875 4.9375 2.1875 4.9375 1 7 C0.01 7.33 -0.98 7.66 -2 8 C-2 7.01 -2 6.02 -2 5 C-1.34 5 -0.68 5 0 5 C0 3.35 0 1.7 0 0 Z " fill="#6AC4DD" transform="translate(77,136)"/>
<path d="M0 0 C1.65 1.65 3.3 3.3 5 5 C4.67 5.66 4.34 6.32 4 7 C3.01 6.67 2.02 6.34 1 6 C0.67 4.02 0.34 2.04 0 0 Z " fill="#38A8CB" transform="translate(134,27)"/>
<path d="M0 0 C2.97 0.495 2.97 0.495 6 1 C6.33 1.99 6.66 2.98 7 4 C4.625 3.6875 4.625 3.6875 2 3 C1.34 2.01 0.68 1.02 0 0 Z " fill="#35A8CB" transform="translate(73,28)"/>
</svg>
